<?xml version="1.0" encoding="utf-8"?>
<!-- Generator: Adobe Illustrator 16.0.0, SVG Export Plug-In . SVG Version: 6.00 Build 0)  -->
<!DOCTYPE svg PUBLIC "-//W3C//DTD SVG 1.1//EN" "http://www.w3.org/Graphics/SVG/1.1/DTD/svg11.dtd">
<svg version="1.1" id="Capa_1" xmlns="http://www.w3.org/2000/svg" xmlns:xlink="http://www.w3.org/1999/xlink" x="0px" y="0px"
	 width="164.891px" height="153.236px" viewBox="0 0 164.891 153.236" enable-background="new 0 0 164.891 153.236"
	 xml:space="preserve">
<g>
	<path fill="#194077" d="M65.735,103.514c7.409,0,14.334,0,21.26-0.002c21.255-0.001,42.511-0.003,63.767-0.006
		c7.03-0.001,11.393-4.417,11.391-11.476c-0.008-25.771-0.007-51.542,0.001-77.313c0.002-7.134-4.39-11.521-11.528-11.52
		C115.988,3.206,81.352,3.206,46.715,3.2c-6.82-0.001-11.301,4.427-11.302,11.232c-0.002,22.688-0.001,45.375-0.001,68.062
		c0,0.591,0,1.181,0,2.322c2.428-1.211,4.577-2.144,6.585-3.314c3.896-2.271,3.85-2.327,3.848-6.74
		c-0.003-19.383,0-38.767,0.007-58.149c0-2.284,0.685-2.975,2.92-2.975c33.205-0.001,66.41,0,99.614,0.005
		c0.55,0,1.125-0.062,1.644,0.075c1.44,0.382,1.695,1.492,1.693,2.824c-0.019,12.556-0.007,25.11-0.007,37.665
		c0,11.896-0.001,23.789-0.001,35.684c0,2.578-0.592,3.18-3.212,3.18c-23.236,0.006-46.474,0.016-69.711-0.018
		c-1.262-0.002-1.974,0.446-2.875,1.354c-2.665,2.686-5.584,5.119-8.411,7.645C67.061,102.45,66.584,102.815,65.735,103.514z"/>
	<path fill="#194077" d="M29.986,53.381c-0.956,0.64-1.709,0.991-2.271,1.541C20.723,61.774,13.617,68.52,6.849,75.59
		c-3.14,3.277-3.495,7.583-2.805,12.084c1.558,10.15,2.936,20.329,4.242,30.515c0.489,3.809,0.579,7.668,0.859,11.633
		c10.351,0,20.771,0,31.409,0c0-1.24-0.054-2.49,0.026-3.731c0.03-0.479,0.228-1.164,0.578-1.378
		c5.563-3.383,8.415-8.711,9.782-14.712c0.787-3.455,2.5-5.704,5.151-7.747c4.227-3.257,8.297-6.718,12.392-10.142
		c2.581-2.159,4.261-4.828,3.635-8.347c-0.896-5.04-5.798-7.754-11.195-6.009c-2.196,0.711-4.247,2.023-6.2,3.312
		c-3.715,2.447-7.18,5.298-11.006,7.543c-2.358,1.385-5.13,2.285-7.83,2.823c-4.226,0.842-7.355-1.496-8.102-5.75
		c-0.624-3.56-0.177-7.01,1.71-10.192c0.266-0.446,0.465-1.01,0.468-1.521C29.996,67.257,29.986,60.544,29.986,53.381z"/>
	<path fill="#194077" d="M24.611,135.37c-5.449,0-10.898-0.006-16.347,0.002c-3.071,0.004-4.567,1.497-4.575,4.542
		c-0.006,2.257-0.02,4.514,0.005,6.771c0.031,2.864,1.531,4.393,4.391,4.396c11.174,0.02,22.348,0.021,33.521,0.003
		c2.641-0.004,4.203-1.585,4.23-4.217c0.026-2.422,0.028-4.844-0.001-7.266c-0.03-2.657-1.562-4.211-4.216-4.225
		C35.95,135.352,30.281,135.371,24.611,135.37z"/>
</g>
<path fill="#194077" d="M127.363,25.065c-3.324,0.136-5.908,2.945-5.773,6.286l-15.351,15.095L93.153,34.993L69.204,59.017
	c-3.083,0.393-5.395,3.052-5.272,6.211c0.136,3.322,2.962,5.906,6.285,5.771c3.324-0.136,5.908-2.961,5.772-6.285
	c-0.015-0.271-0.075-0.528-0.121-0.801l18.026-17.301l12.646,11.076l20.958-20.58c0.121,0,0.241,0.029,0.362,0.015
	c3.324-0.136,5.909-2.961,5.771-6.285C133.496,27.514,130.687,24.928,127.363,25.065z"/>
</svg>
